<?xml version="1.0" encoding="UTF-8"?>
<svg width="10px" height="13px" viewBox="0 0 10 13" version="1.1" xmlns="http://www.w3.org/2000/svg" xmlns:xlink="http://www.w3.org/1999/xlink">
    <!-- Generator: Sketch 49.3 (51167) - http://www.bohemiancoding.com/sketch -->
    <title>locked</title>
    <desc>Created with Sketch.</desc>
    <defs></defs>
    <g id="Page-1" stroke="none" stroke-width="1" fill="none" fill-rule="evenodd">
        <g id="locked" fill="#000000" fill-rule="nonzero">
            <path d="M8.62096774,5.12777778 L8.62096774,3.6191358 C8.62096774,1.62098765 6.98387097,0 4.97580645,0 C2.96774194,0 1.33870968,1.62098765 1.33870968,3.6191358 L1.33870968,5.12777778 L0,5.12777778 L0,12.9598765 L9.95967742,12.9598765 L9.95967742,5.12777778 L8.62096774,5.12777778 Z M5.80645161,10.4722222 L4.15322581,10.4722222 L4.15322581,7.62345679 L5.80645161,7.62345679 L5.80645161,10.4722222 Z M7.08870968,5.12777778 L2.87096774,5.12777778 L2.87096774,3.6191358 C2.87096774,2.46358025 3.81451613,1.52469136 4.97580645,1.52469136 C6.13709677,1.52469136 7.08064516,2.46358025 7.08064516,3.6191358 L7.08064516,5.12777778 L7.08870968,5.12777778 Z" id="Shape"></path>
        </g>
    </g>
</svg>