<svg viewBox="0 0 30 30" xmlns="http://www.w3.org/2000/svg"><g fill="#000" opacity=".5"><path d="M29.0363128,13.7905028 L24.8379888,13.7905028 C24.4106145,12.0893855 22.8687151,10.8324022 21.0335196,10.8324022 C19.198324,10.8324022 17.6648045,12.0893855 17.2290503,13.7905028 L0.963687151,13.7905028 C0.427374302,13.7905028 0,14.2178771 0,14.7541899 C0,15.2905028 0.427374302,15.7178771 0.963687151,15.7178771 L17.2290503,15.7178771 C17.6648045,17.4189944 19.2067039,18.6759777 21.0335196,18.6759777 C22.8603352,18.6759777 24.4022346,17.4189944 24.8379888,15.7178771 L29.0363128,15.7178771 C29.5726257,15.7178771 30,15.2905028 30,14.7541899 C30,14.2178771 29.5642458,13.7905028 29.0363128,13.7905028 Z M21.5865922,16.6731844 C21.5782123,16.6731844 21.5782123,16.6731844 21.5698324,16.6815642 C21.4860335,16.7067039 21.4022346,16.7234637 21.3184358,16.7318436 C21.3100559,16.7318436 21.301676,16.7318436 21.2932961,16.7318436 C21.2597765,16.7402235 21.226257,16.7402235 21.1927374,16.7402235 C21.1843575,16.7402235 21.1675978,16.7402235 21.1592179,16.7402235 C21.1173184,16.7402235 21.075419,16.7486034 21.0335196,16.7486034 C20.9916201,16.7486034 20.9497207,16.7486034 20.9078212,16.7402235 C20.8994413,16.7402235 20.8826816,16.7402235 20.8743017,16.7402235 C20.8407821,16.7402235 20.8072626,16.7318436 20.773743,16.7318436 C20.7653631,16.7318436 20.7569832,16.7318436 20.7486034,16.7318436 C20.6648045,16.7234637 20.5810056,16.698324 20.4972067,16.6815642 C20.4888268,16.6815642 20.4888268,16.6815642 20.4804469,16.6731844 C19.6424581,16.4301676 19.0307263,15.6675978 19.0307263,14.7541899 C19.0307263,13.8407821 19.6424581,13.0782123 20.4804469,12.8351955 C20.4888268,12.8351955 20.4888268,12.8351955 20.4972067,12.8268156 C20.5391061,12.8184358 20.5810056,12.801676 20.622905,12.7932961 C20.622905,12.7932961 20.622905,12.7932961 20.622905,12.7932961 C20.6648045,12.7849162 20.7067039,12.7765363 20.7486034,12.7681564 C20.7569832,12.7681564 20.7653631,12.7681564 20.773743,12.7681564 C20.8072626,12.7597765 20.8407821,12.7597765 20.8743017,12.7597765 C20.8826816,12.7597765 20.8994413,12.7597765 20.9078212,12.7597765 C20.9497207,12.7597765 20.9916201,12.7513966 21.0335196,12.7513966 C21.075419,12.7513966 21.1173184,12.7513966 21.1592179,12.7597765 C21.1675978,12.7597765 21.1843575,12.7597765 21.1927374,12.7597765 C21.226257,12.7597765 21.2597765,12.7681564 21.2932961,12.7681564 C21.301676,12.7681564 21.3100559,12.7681564 21.3184358,12.7681564 C21.3603352,12.7765363 21.4022346,12.7849162 21.4441341,12.7932961 C21.4441341,12.7932961 21.4441341,12.7932961 21.4441341,12.7932961 C21.4860335,12.801676 21.527933,12.8100559 21.5698324,12.8268156 C21.5782123,12.8268156 21.5782123,12.8268156 21.5865922,12.8351955 C22.424581,13.0782123 23.0363128,13.8407821 23.0363128,14.7541899 C23.027933,15.6675978 22.4162011,16.4301676 21.5865922,16.6731844 Z"/><path d="M29.0363128,4.95810056 L15.8379888,4.95810056 C15.4106145,3.25698324 13.8687151,2 12.0418994,2 C10.2150838,2 8.67318436,3.25698324 8.23743017,4.95810056 L0.963687151,4.95810056 C0.427374302,4.95810056 0,5.39385475 0,5.92178771 C0,6.44972067 0.427374302,6.88547486 0.963687151,6.88547486 L8.23743017,6.88547486 C8.66480447,8.58659218 10.2067039,9.84357542 12.0418994,9.84357542 C13.877095,9.84357542 15.4106145,8.58659218 15.8463687,6.88547486 L29.0363128,6.88547486 C29.5726257,6.88547486 30,6.45810056 30,5.92178771 C30,5.38547486 29.5642458,4.95810056 29.0363128,4.95810056 Z M12.5865922,7.84078212 C12.5782123,7.84078212 12.5782123,7.84078212 12.5698324,7.84916201 C12.4860335,7.87430168 12.4022346,7.89106145 12.3184358,7.89944134 C12.3100559,7.89944134 12.301676,7.89944134 12.2932961,7.89944134 C12.2597765,7.90782123 12.226257,7.90782123 12.1927374,7.90782123 C12.1843575,7.90782123 12.1675978,7.90782123 12.1592179,7.90782123 C12.1173184,7.90782123 12.075419,7.91620112 12.0335196,7.91620112 C11.9916201,7.91620112 11.9497207,7.91620112 11.9078212,7.90782123 C11.8994413,7.90782123 11.8826816,7.90782123 11.8743017,7.90782123 C11.8407821,7.90782123 11.8072626,7.89944134 11.773743,7.89944134 C11.7653631,7.89944134 11.7569832,7.89944134 11.7486034,7.89944134 C11.6648045,7.89106145 11.5810056,7.86592179 11.4972067,7.84916201 C11.4888268,7.84916201 11.4888268,7.84916201 11.4804469,7.84078212 C10.6424581,7.59776536 10.0307263,6.83519553 10.0307263,5.92178771 C10.0307263,5.00837989 10.6424581,4.24581006 11.4804469,4.0027933 C11.4888268,4.0027933 11.4888268,4.0027933 11.4972067,3.99441341 C11.5391061,3.98603352 11.5810056,3.96927374 11.622905,3.96089385 C11.622905,3.96089385 11.622905,3.96089385 11.622905,3.96089385 C11.6648045,3.95251397 11.7067039,3.94413408 11.7486034,3.93575419 C11.7569832,3.93575419 11.7653631,3.93575419 11.773743,3.93575419 C11.8072626,3.9273743 11.8407821,3.9273743 11.8743017,3.9273743 C11.8826816,3.9273743 11.8994413,3.9273743 11.9078212,3.9273743 C11.9497207,3.9273743 11.9916201,3.91899441 12.0335196,3.91899441 C12.075419,3.91899441 12.1173184,3.91899441 12.1592179,3.9273743 C12.1675978,3.9273743 12.1843575,3.9273743 12.1927374,3.9273743 C12.226257,3.9273743 12.2597765,3.93575419 12.2932961,3.93575419 C12.301676,3.93575419 12.3100559,3.93575419 12.3184358,3.93575419 C12.3603352,3.94413408 12.4022346,3.95251397 12.4441341,3.96089385 C12.4441341,3.96089385 12.4441341,3.96089385 12.4441341,3.96089385 C12.4860335,3.96927374 12.527933,3.97765363 12.5698324,3.99441341 C12.5782123,3.99441341 12.5782123,3.99441341 12.5865922,4.0027933 C13.424581,4.24581006 14.0363128,5.00837989 14.0363128,5.92178771 C14.0363128,6.83519553 13.424581,7.60614525 12.5865922,7.84078212 Z"/><path d="M29.0363128,22.622905 L12.5111732,22.622905 C12.0837989,20.9217877 10.5418994,19.6648045 8.70670391,19.6648045 C6.87150838,19.6648045 5.33798883,20.9217877 4.90223464,22.622905 L0.963687151,22.622905 C0.427374302,22.622905 0,23.0502793 0,23.5865922 C0,24.122905 0.427374302,24.5502793 0.963687151,24.5502793 L4.90223464,24.5502793 C5.32960894,26.2513966 6.87150838,27.5083799 8.70670391,27.5083799 C10.5418994,27.5083799 12.075419,26.2513966 12.5111732,24.5502793 L29.0363128,24.5502793 C29.5726257,24.5502793 30,24.122905 30,23.5865922 C30,23.0502793 29.5642458,22.622905 29.0363128,22.622905 Z M9.25977654,25.5055866 C9.25139665,25.5055866 9.25139665,25.5055866 9.24301676,25.5139665 C9.15921788,25.5391061 9.07541899,25.5558659 8.99162011,25.5642458 C8.98324022,25.5642458 8.97486034,25.5642458 8.96648045,25.5642458 C8.93296089,25.5726257 8.89944134,25.5726257 8.86592179,25.5726257 C8.8575419,25.5726257 8.84078212,25.5726257 8.83240223,25.5726257 C8.79050279,25.5726257 8.74860335,25.5810056 8.70670391,25.5810056 C8.66480447,25.5810056 8.62290503,25.5810056 8.58100559,25.5726257 C8.5726257,25.5726257 8.55586592,25.5726257 8.54748603,25.5726257 C8.51396648,25.5726257 8.48044693,25.5642458 8.44692737,25.5642458 C8.43854749,25.5642458 8.4301676,25.5642458 8.42178771,25.5642458 C8.33798883,25.5558659 8.25418994,25.5307263 8.17039106,25.5139665 C8.16201117,25.5139665 8.16201117,25.5139665 8.15363128,25.5055866 C7.31564246,25.2625698 6.70391061,24.5 6.70391061,23.5865922 C6.70391061,22.6731844 7.31564246,21.9106145 8.15363128,21.6675978 C8.16201117,21.6675978 8.16201117,21.6675978 8.17039106,21.6592179 C8.2122905,21.650838 8.25418994,21.6340782 8.29608939,21.6256983 C8.29608939,21.6256983 8.29608939,21.6256983 8.29608939,21.6256983 C8.33798883,21.6173184 8.37988827,21.6089385 8.42178771,21.6005587 C8.4301676,21.6005587 8.43854749,21.6005587 8.44692737,21.6005587 C8.48044693,21.5921788 8.51396648,21.5921788 8.54748603,21.5921788 C8.55586592,21.5921788 8.5726257,21.5921788 8.58100559,21.5921788 C8.62290503,21.5921788 8.66480447,21.5837989 8.70670391,21.5837989 C8.74860335,21.5837989 8.79050279,21.5837989 8.83240223,21.5921788 C8.84078212,21.5921788 8.8575419,21.5921788 8.86592179,21.5921788 C8.89944134,21.5921788 8.93296089,21.6005587 8.96648045,21.6005587 C8.97486034,21.6005587 8.98324022,21.6005587 8.99162011,21.6005587 C9.03351955,21.6089385 9.07541899,21.6173184 9.11731844,21.6256983 C9.11731844,21.6256983 9.11731844,21.6256983 9.11731844,21.6256983 C9.15921788,21.6340782 9.20111732,21.6424581 9.24301676,21.6592179 C9.25139665,21.6592179 9.25139665,21.6592179 9.25977654,21.6675978 C10.0977654,21.9106145 10.7094972,22.6731844 10.7094972,23.5865922 C10.7011173,24.5 10.0893855,25.2625698 9.25977654,25.5055866 Z"/></g></svg>